PathFileType	4	(X/Y/Z)	./resultDataOpenSim/trcMotMarkerGrf/sub10/qtm-14-03.trc
DataRate	CameraRate	NumFrames	NumMarkers	Units	OrigDataRate	OrigDataStartFrame	OrigNumFrames
250.000000	250.000000	10	24	m	250.000000	182	484
Frame#	Time	L.Toe.Tip			R.Toe.Tip			L.Ankle.Lat			R.Ankle.Lat			L.Ankle.Med			R.Ankle.Med			L.Heel			R.Heel			L.Knee.Lat			R.Knee.Lat			L.Knee.Med			R.Knee.Med			L.Thigh.Upper			R.Thigh.Upper			L.ASIS			R.ASIS			V.Sacral			L.Acromium			R.Acromium			C7			L.Elbow			R.Elbow			L.Wrist.Lat			R.Wrist.Lat
		X1	Y1	Z1	X2	Y2	Z2	X3	Y3	Z3	X4	Y4	Z4	X5	Y5	Z5	X6	Y6	Z6	X7	Y7	Z7	X8	Y8	Z8	X9	Y9	Z9	X10	Y10	Z10	X11	Y11	Z11	X12	Y12	Z12	X13	Y13	Z13	X14	Y14	Z14	X15	Y15	Z15	X16	Y16	Z16	X17	Y17	Z17	X18	Y18	Z18	X19	Y19	Z19	X20	Y20	Z20	X21	Y21	Z21	X22	Y22	Z22	X23	Y23	Z23	X24	Y24	Z24

182	0.724	0.01488384	-0.03168067	-0.087392093	-0.69975543	0.061574964	-0.0053482373	-0.12100096	-0.010234825	-0.12220933	-0.73066459	0.20267125	0.040727347	-0.12037857	0.013121313	-0.03928983	-0.68118083	0.18698492	-0.028696297	-0.18548126	-0.042158242	-0.082871135	-0.7582903	0.23597837	-0.016458233	-0.1360947	0.37264734	-0.16325818	-0.40256823	0.38279699	0.11643652	-0.14112195	0.3563559	-0.041019795	-0.3302454	0.34398027	0.0047012874	-0.217495	0.75918274	-0.23145452	-0.34280131	0.78128135	0.1309642	-0.1737579	0.85653729	-0.13971321	-0.23842867	0.8698795	0.079914106	-0.39391438	0.88707298	-0.10205516	-0.26756728	1.3330009	-0.22909777	-0.31130429	1.3430879	0.088371601	-0.36856516	1.3533131	-0.086388329	-0.43511385	1.0404019	-0.28791271	-0.35154175	0.98345573	0.13504037	-0.37572709	0.81888785	-0.36923954	-0.13454734	0.91617128	0.24712737
183	0.728	0.014972103	-0.031786462	-0.087720825	-0.68869266	0.066665759	0.00045247829	-0.12103447	-0.0091149443	-0.12232794	-0.71742852	0.20950279	0.041723033	-0.11975951	0.014123088	-0.039545185	-0.6686357	0.19212934	-0.027758428	-0.18548062	-0.041846144	-0.082957816	-0.74646159	0.24264928	-0.015869404	-0.12689743	0.37479242	-0.16295331	-0.38788166	0.38060545	0.11840747	-0.13388205	0.3591783	-0.041029058	-0.31428594	0.34269758	0.005962105	-0.21011292	0.75849687	-0.23167174	-0.33407359	0.77923119	0.13083268	-0.16826133	0.85434378	-0.13981529	-0.23241628	0.86844956	0.078662034	-0.3882107	0.88633714	-0.10228209	-0.25958864	1.3318022	-0.2296412	-0.30463658	1.3425095	0.087920865	-0.36148376	1.3522195	-0.087608546	-0.42612471	1.0385652	-0.28926718	-0.34511999	0.98286831	0.13566853	-0.36698517	0.81749446	-0.37174859	-0.12984988	0.91601301	0.25085267
184	0.732	0.015349378	-0.031920717	-0.088086253	-0.67661835	0.072194189	0.0068782334	-0.12034393	-0.0082973426	-0.12236392	-0.70342855	0.21652932	0.042690192	-0.11817366	0.015206639	-0.039579749	-0.65550318	0.19746273	-0.026906969	-0.1851843	-0.041371909	-0.082858967	-0.73389677	0.24906616	-0.015573142	-0.11750584	0.37651449	-0.16273861	-0.3725446	0.37859035	0.11997968	-0.12614739	0.36187588	-0.041205232	-0.29830861	0.34237752	0.0068803755	-0.20185533	0.75787696	-0.23215769	-0.32617297	0.77711122	0.13157602	-0.16305633	0.85242879	-0.13982681	-0.22676688	0.86707656	0.077585701	-0.38263415	0.8857756	-0.10180343	-0.25163355	1.3307491	-0.23003894	-0.29773025	1.3421139	0.087576773	-0.3540609	1.3516899	-0.088587426	-0.41696054	1.0367983	-0.29069811	-0.33874073	0.98249829	0.13675632	-0.35791607	0.8161325	-0.37418268	-0.12523135	0.91589575	0.25475865
185	0.736	0.015832441	-0.032067914	-0.08845068	-0.66358617	0.078052217	0.013616979	-0.11942169	-0.0079617498	-0.12244152	-0.68899079	0.22352326	0.043513185	-0.11641322	0.016151471	-0.039568085	-0.64183142	0.20287809	-0.026164055	-0.18475381	-0.040835895	-0.082665076	-0.72003026	0.25483115	-0.015754458	-0.10824526	0.37782171	-0.1626757	-0.35651684	0.37683507	0.12119869	-0.11798687	0.36428791	-0.041514209	-0.28240908	0.3427738	0.0075343654	-0.1931885	0.75745347	-0.23308949	-0.3188282	0.77496688	0.13291473	-0.15824392	0.85087035	-0.13964955	-0.22114895	0.86573316	0.076680148	-0.37737672	0.88539948	-0.10075332	-0.24369141	1.329838	-0.23028592	-0.29058244	1.3418863	0.087299797	-0.34616952	1.3517294	-0.089314067	-0.40759934	1.0351397	-0.2921248	-0.33239103	0.98230045	0.13828119	-0.34849565	0.81487151	-0.37655358	-0.12066641	0.9158987	0.25888202
186	0.74	0.016295555	-0.032215263	-0.088803251	-0.649659	0.084168843	0.02038491	-0.11860465	-0.0079075046	-0.12262451	-0.67429423	0.23037752	0.044166207	-0.11501617	0.016866778	-0.039662913	-0.62765506	0.20824086	-0.025467884	-0.18434515	-0.040288641	-0.082547839	-0.70495963	0.25999309	-0.016302332	-0.099325949	0.37879584	-0.16279236	-0.33992604	0.3754836	0.12221934	-0.10950011	0.36630574	-0.041974876	-0.26664896	0.34367549	0.0079828916	-0.18534295	0.75724617	-0.23435739	-0.31159288	0.77294008	0.13431936	-0.15375258	0.84968916	-0.13938931	-0.21537849	0.86444873	0.075944842	-0.37261046	0.88512784	-0.09936528	-0.23573213	1.3290447	-0.23038951	-0.28320016	1.3418029	0.087058441	-0.33782215	1.3522148	-0.089805467	-0.39802787	1.0335918	-0.29358619	-0.32606633	0.98224063	0.14017916	-0.33870881	0.81376702	-0.3789059	-0.11618643	0.9161016	0.26326623
187	0.744	0.016683488	-0.032354348	-0.089141683	-0.63493896	0.090532931	0.02697322	-0.11796801	-0.0078577543	-0.12289039	-0.65931948	0.23711822	0.044725707	-0.11406342	0.017370074	-0.039884406	-0.61302173	0.2134405	-0.024723482	-0.1840282	-0.039739031	-0.082579256	-0.68934433	0.26502416	-0.016864047	-0.090917445	0.37948524	-0.16305403	-0.32302501	0.37464885	0.12325119	-0.10078983	0.36787254	-0.042595073	-0.25101808	0.34493935	0.0082768679	-0.17925107	0.75706433	-0.23554431	-0.30425162	0.77116249	0.13547495	-0.14930685	0.84884179	-0.13935878	-0.20949307	0.8632857	0.075357959	-0.3681824	0.8848184	-0.097792999	-0.22772567	1.3283286	-0.23036369	-0.27559798	1.3418317	0.086823726	-0.32916538	1.3529531	-0.090089482	-0.38828933	1.0321332	-0.29512159	-0.31978702	0.98233467	0.142368	-0.32855394	0.81285003	-0.38130197	-0.11184632	0.91656844	0.26794969
188	0.748	0.016990959	-0.03247933	-0.089460145	-0.61959277	0.097154457	0.03323236	-0.11744032	-0.0077114666	-0.12317758	-0.64399457	0.24379168	0.045306119	-0.11338069	0.017725542	-0.04014035	-0.59798596	0.21842972	-0.023864546	-0.1837946	-0.039188237	-0.082728015	-0.67374338	0.27030992	-0.017109615	-0.083205154	0.37988522	-0.1633775	-0.30600274	0.37431092	0.12444052	-0.091910578	0.36897414	-0.043305999	-0.23547908	0.34646593	0.0084624312	-0.17476736	0.75669067	-0.23631007	-0.29682845	0.76968248	0.13633437	-0.14469274	0.84827562	-0.13980879	-0.20369297	0.86228551	0.074867536	-0.36373971	0.88433483	-0.096174837	-0.21966153	1.3276499	-0.23022065	-0.26779277	1.3419366	0.0865718	-0.32039796	1.3537563	-0.090211112	-0.37849897	1.0307411	-0.2966353	-0.31359078	0.98264338	0.14476639	-0.31804438	0.8121363	-0.38380568	-0.10768137	0.91734294	0.2729568
189	0.752	0.017243361	-0.032584645	-0.089742624	-0.60380158	0.10399647	0.039066449	-0.11693801	-0.0075195017	-0.12342663	-0.62832728	0.25035551	0.046000956	-0.11279242	0.017997283	-0.040311266	-0.58258941	0.22323255	-0.022853999	-0.18360394	-0.03864905	-0.082925254	-0.65823736	0.27584854	-0.016895905	-0.07632832	0.38000476	-0.16367388	-0.28887712	0.37435156	0.12580231	-0.082899245	0.36961037	-0.043983381	-0.22000129	0.34817637	0.0085854598	-0.17110149	0.75609166	-0.23666706	-0.28945077	0.76849182	0.13696778	-0.1399227	0.84797794	-0.14075097	-0.19816164	0.86144235	0.07442661	-0.35907636	0.88364888	-0.094540256	-0.21155497	1.3269855	-0.22996205	-0.2597986	1.3420845	0.086285065	-0.31165856	1.3544834	-0.09024999	-0.36876103	1.0293961	-0.29799966	-0.30750621	0.98323165	0.14730592	-0.30720186	0.81164081	-0.38647036	-0.10369764	0.91844972	0.27829507
190	0.756	0.017475829	-0.032665209	-0.089967324	-0.58766778	0.11094516	0.044445515	-0.11642145	-0.0073430054	-0.12358919	-0.61243558	0.25667586	0.04685287	-0.11221174	0.018229148	-0.040321956	-0.5668642	0.22792057	-0.021667342	-0.1834161	-0.038134307	-0.083085514	-0.64259223	0.28142769	-0.016227305	-0.070277038	0.37990718	-0.16390039	-0.27159108	0.37468031	0.12725851	-0.073897945	0.36977397	-0.04454249	-0.20457747	0.3500014	0.0086950659	-0.16759869	0.75537155	-0.23682802	-0.28223189	0.76756434	0.13743028	-0.13513051	0.84796475	-0.14204378	-0.19294392	0.86071929	0.074027699	-0.3542463	0.88282908	-0.09273384	-0.20343258	1.3263253	-0.22957741	-0.25164231	1.3422499	0.085952274	-0.30297202	1.355049	-0.090287972	-0.35910515	1.0280786	-0.29921616	-0.301531	0.9841198	0.14993153	-0.29604867	0.81137788	-0.38933592	-0.099883347	0.91989356	0.28396178
191	0.76	0.017712498	-0.032721941	-0.090118957	-0.57118796	0.11783364	0.049398152	-0.11588744	-0.0071872572	-0.12361975	-0.5964124	0.26265452	0.047893271	-0.11163123	0.018431094	-0.040152401	-0.55084589	0.23256804	-0.020292202	-0.18320951	-0.037638916	-0.083114354	-0.62656762	0.28686566	-0.015149406	-0.064897821	0.37966501	-0.16407976	-0.25413952	0.37528805	0.1287113	-0.065191086	0.36946735	-0.044987769	-0.18922221	0.35188278	0.0088373417	-0.16399895	0.75462702	-0.23696057	-0.27521142	0.76685842	0.13771752	-0.13044636	0.84824873	-0.14353169	-0.18797689	0.86007188	0.073696273	-0.34938927	0.88193905	-0.090558484	-0.19531825	1.3256589	-0.22905849	-0.24338704	1.3424021	0.085571967	-0.29432829	1.3554184	-0.090298036	-0.34952351	1.0267731	-0.30038739	-0.29562911	0.98525682	0.15259593	-0.28460888	0.81135254	-0.39243662	-0.096217125	0.92166011	0.28995416
